<?xml version="1.0" encoding="UTF-8"?>
<svg xmlns="http://www.w3.org/2000/svg"  width="60px" height="60px" viewBox="0 0 99 74" version="1.1">
<g id="surface1">
<path style=" stroke:none;fill-rule:nonzero;fill:rgb(0%,0%,0%);fill-opacity:1;" d="M 52.609375 8.296875 C 52.003906 8.773438 51.121094 10.472656 50.71875 12.105469 C 50.3125 13.671875 49.769531 14.828125 49.433594 14.691406 C 48.960938 14.351562 25.492188 20.539062 22.113281 21.902344 C 21.097656 22.308594 20.085938 23.328125 19.882812 24.144531 C 19.542969 25.574219 27.386719 56.996094 29.078125 61.007812 C 29.414062 61.824219 30.429688 62.710938 31.308594 62.914062 C 33.675781 63.527344 59.371094 56.519531 60.859375 54.886719 C 62.011719 53.664062 62.214844 53.664062 66.945312 55.09375 C 71.410156 56.453125 71.882812 56.453125 73.371094 55.5 C 74.316406 54.886719 75.332031 53.253906 75.671875 51.894531 C 76.007812 50.46875 78.171875 42.304688 80.472656 33.804688 C 82.703125 25.234375 84.394531 17.683594 84.191406 16.9375 C 83.582031 15.097656 82.839844 14.757812 68.773438 10.949219 C 54.910156 7.210938 54.234375 7.074219 52.609375 8.296875 Z M 68.570312 13.058594 C 75.941406 15.03125 82.09375 16.9375 82.230469 17.34375 C 82.703125 18.5 73.234375 53.1875 72.289062 53.730469 C 71.613281 54.207031 63.226562 52.234375 62.414062 51.488281 C 62.28125 51.28125 61.671875 49.445312 61.0625 47.339844 C 60.050781 43.734375 60.050781 43.460938 61.199219 42.644531 C 62.753906 41.421875 62.28125 39.246094 60.253906 38.769531 C 58.765625 38.429688 58.359375 37.273438 55.585938 27.207031 C 53.894531 21.015625 52.542969 14.964844 52.609375 13.738281 C 52.679688 11.628906 53.691406 9.523438 54.707031 9.523438 C 54.910156 9.523438 61.132812 11.085938 68.570312 13.058594 Z M 52.070312 22.648438 C 52.882812 25.710938 55.046875 33.734375 56.871094 40.46875 C 59.441406 50.058594 59.980469 52.914062 59.304688 53.527344 C 58.5625 54.34375 34.082031 61.214844 32.121094 61.214844 C 31.039062 61.214844 31.039062 61.214844 25.359375 39.789062 C 22.855469 30.46875 21.707031 25.164062 22.113281 24.554688 C 22.789062 23.53125 48.484375 16.324219 49.839844 16.800781 C 50.242188 17.003906 51.257812 19.589844 52.070312 22.648438 Z M 61.535156 40.402344 C 61.535156 41.828125 60.117188 42.507812 59.441406 41.421875 C 58.492188 39.925781 58.695312 39.449219 60.183594 39.449219 C 60.929688 39.449219 61.535156 39.855469 61.535156 40.402344 Z M 61.535156 40.402344 "/>
<path style=" stroke:none;fill-rule:nonzero;fill:rgb(0%,0%,0%);fill-opacity:1;" d="M 63.769531 21.21875 C 62.890625 22.308594 60.183594 32.578125 60.183594 34.550781 C 60.183594 36.25 61.941406 37.273438 62.957031 36.25 C 63.972656 35.230469 67.148438 22.582031 66.675781 21.425781 C 66.203125 20.199219 64.648438 20.0625 63.769531 21.21875 Z M 66.066406 22.242188 C 66.339844 22.851562 66.203125 23.464844 65.730469 23.667969 C 65.324219 23.804688 65.121094 24.28125 65.324219 24.824219 C 65.527344 25.300781 65.390625 25.914062 64.984375 26.117188 C 64.578125 26.390625 64.511719 27.070312 64.714844 27.683594 C 65.054688 28.5 64.917969 28.632812 64.242188 28.226562 C 63.566406 27.816406 63.496094 28.089844 63.835938 29.65625 C 64.175781 31.152344 64.105469 31.421875 63.566406 30.605469 C 62.957031 29.859375 62.890625 30.128906 63.226562 31.96875 C 63.566406 33.871094 63.496094 34.144531 62.890625 33.328125 C 62.214844 32.511719 62.144531 32.578125 62.414062 33.804688 C 62.820312 35.503906 61.941406 36.523438 61.199219 35.300781 C 60.589844 34.414062 64.175781 21.085938 65.054688 21.085938 C 65.390625 21.085938 65.863281 21.628906 66.066406 22.242188 Z M 66.066406 22.242188 "/>
<path style=" stroke:none;fill-rule:nonzero;fill:rgb(0%,0%,0%);fill-opacity:1;" d="M 36.515625 28.15625 C 33.945312 28.972656 31.984375 31.761719 32.660156 33.53125 C 33.269531 35.09375 35.636719 34.960938 36.179688 33.394531 C 36.652344 31.832031 38.546875 31.082031 40.167969 31.695312 C 41.589844 32.238281 41.519531 32.78125 39.898438 36.046875 C 37.734375 40.332031 38.34375 44.617188 40.980469 44.074219 C 41.859375 43.9375 42.398438 43.054688 42.671875 41.148438 C 42.871094 39.652344 43.617188 37.273438 44.226562 35.84375 C 45.238281 33.597656 45.238281 33.054688 44.359375 30.945312 C 43.820312 29.65625 43.277344 28.566406 43.144531 28.566406 C 43.007812 28.566406 41.992188 28.292969 40.910156 27.953125 C 39.558594 27.613281 38.003906 27.683594 36.515625 28.15625 Z M 42.195312 30.335938 C 43.550781 31.695312 44.292969 35.640625 43.074219 34.890625 C 42.738281 34.6875 42.601562 34.890625 42.738281 35.4375 C 42.941406 35.980469 42.671875 37.203125 42.195312 38.222656 C 41.65625 39.246094 41.316406 40.742188 41.453125 41.558594 C 41.65625 43.734375 40.03125 43.9375 39.492188 41.761719 C 39.152344 40.46875 39.425781 39.039062 40.4375 37.136719 C 42.128906 34.007812 42.265625 32.578125 41.113281 31.421875 C 39.761719 30.0625 37.261719 30.46875 35.703125 32.308594 C 34.351562 33.871094 33.136719 34.007812 33.136719 32.578125 C 33.136719 32.238281 33.878906 31.152344 34.757812 30.265625 C 36.785156 28.226562 40.234375 28.226562 42.195312 30.335938 Z M 42.195312 30.335938 "/>
<path style=" stroke:none;fill-rule:nonzero;fill:rgb(0%,0%,0%);fill-opacity:1;" d="M 40.84375 46.523438 C 39.492188 47.542969 39.898438 49.445312 41.65625 50.125 C 43.007812 50.671875 44.835938 48.835938 44.292969 47.472656 C 43.683594 45.910156 42.265625 45.5 40.84375 46.523438 Z M 40.84375 46.523438 "/>
</g>
</svg>
