<?xml version="1.0" encoding="UTF-8"?>
<svg xmlns="http://www.w3.org/2000/svg"  width="60px" height="60px" viewBox="0 0 99 74" version="1.1">
<g id="surface1">
<path style=" stroke:none;fill-rule:nonzero;fill:rgb(0%,0%,0%);fill-opacity:1;" d="M 39.910156 18.589844 C 35.945312 20.734375 34.019531 23.871094 34.074219 28.050781 C 34.128906 38.003906 45.578125 42.074219 52.402344 34.59375 C 57.191406 29.371094 54.824219 20.953125 47.835938 18.09375 C 44.53125 16.71875 43.101562 16.828125 39.910156 18.589844 Z M 47.78125 21.449219 C 54.441406 25.519531 52.238281 35.144531 44.585938 35.308594 C 42.273438 35.363281 41.503906 35.089844 39.796875 33.769531 C 37.484375 31.84375 36.714844 29.863281 37.210938 26.566406 C 37.542969 24.144531 38.808594 22.660156 41.558594 21.230469 C 43.761719 20.074219 45.578125 20.128906 47.78125 21.449219 Z M 47.78125 21.449219 "/>
<path style=" stroke:none;fill-rule:nonzero;fill:rgb(0%,0%,0%);fill-opacity:1;" d="M 38.148438 43.175781 C 35.339844 43.613281 32.421875 44.550781 30.164062 45.648438 C 25.925781 47.796875 25.484375 48.125 23.890625 50.710938 C 22.128906 53.460938 22.183594 56.59375 23.890625 59.289062 C 26.421875 63.304688 26.148438 63.25 44.3125 63.25 C 58.898438 63.25 60.769531 63.140625 62.089844 62.316406 C 65.339844 60.171875 66.496094 57.199219 65.78125 52.855469 C 65.339844 50.214844 62.585938 47.300781 59.285156 45.925781 C 58.019531 45.429688 56.257812 44.660156 55.320312 44.273438 C 53.503906 43.449219 46.570312 42.296875 44.203125 42.40625 C 43.375 42.460938 40.625 42.789062 38.148438 43.175781 Z M 50.917969 46.253906 C 52.457031 46.585938 54.386719 47.191406 55.210938 47.628906 C 56.089844 48.070312 57.027344 48.398438 57.359375 48.398438 C 58.570312 48.398438 61.816406 51.371094 62.53125 53.128906 C 63.304688 54.890625 63.191406 55.769531 62.089844 58.136719 C 60.992188 60.335938 59.339844 60.554688 43.652344 60.390625 L 28.734375 60.226562 L 27.304688 58.90625 C 26.148438 57.804688 25.871094 57.035156 25.871094 54.945312 C 25.871094 52.523438 26.035156 52.140625 28.074219 50.546875 C 30.714844 48.398438 35.230469 46.695312 41.285156 45.484375 C 42.992188 45.15625 47.285156 45.484375 50.917969 46.253906 Z M 50.917969 46.253906 "/>
</g>
</svg>
